<svg fill="none" height="24" width="24" xmlns="http://www.w3.org/2000/svg"><path d="M10.05 15.42l6.256-8.475a.694.694 0 011.235.57l-.03.098-3.87 9.799a2.07 2.07 0 11-3.737-1.765l.069-.116.076-.11 6.257-8.476-6.257 8.476zm3.8-2.622l-2.594 3.514-.04.062a.57.57 0 00.222.776l.067.032a.57.57 0 00.7-.238l.04-.083 1.605-4.063zm4.76-5.384a10.66 10.66 0 012.022 2.172c.524.749 1.03 1.656 1.32 2.398a.75.75 0 11-1.397.547 8.238 8.238 0 00-.378-.812l-2.05 1.183a.75.75 0 01-.834-1.242l.085-.057 2.018-1.166-.23-.314a9.156 9.156 0 00-1.058-1.16l.38-.964a1.74 1.74 0 00.087-.292l.024-.147.01-.146zm-2.63-1.561a1.715 1.715 0 00-.406.328l-.114.14-.54.733a9.205 9.205 0 00-2.17-.47v2.672a.75.75 0 01-1.493.102l-.007-.102v-2.69A9.108 9.108 0 006.658 8.2c-.816.572-1.528 1.322-2.119 2.205l2.082 1.202a.75.75 0 01-.658 1.344l-.092-.045-2.074-1.197c-.128.266-.246.54-.356.821a.75.75 0 01-1.398-.543c.807-2.075 2.08-3.843 3.754-5.016A10.642 10.642 0 0115.98 5.854z" fill="#fff"/></svg>